<svg width="447" height="468" viewBox="0 0 447 468" fill="none" xmlns="http://www.w3.org/2000/svg">
<path d="M263.989 38.6209C263.989 38.6209 395.376 59.2134 385.413 246.748C385.377 247.443 400.605 257.57 401.797 258.652C412.416 268.272 421.324 280.592 425.22 295.003C439.092 346.322 389.496 399.199 349.39 413.234C334.409 418.476 318.575 421.021 302.709 421.483C199.57 424.492 63.019 358.828 56.0058 230.59C55.7546 225.989 55.6926 221.383 55.8108 216.788C56.4325 192.439 62.2993 168.725 71.1414 146.706C71.1374 146.707 128.539 4.0891 263.989 38.6209Z" fill="#FFE4C0"/>
<g style="mix-blend-mode:multiply" opacity="0.5">
<path d="M388.739 248.727C387.316 252.219 385.895 256.682 385.498 259.234C383.804 270.182 387.543 281.486 394.038 289.612C400.206 297.328 409.014 302.332 417.544 304.219C420.424 304.857 423.911 305.183 426.96 305.286C423.756 273.583 397.987 254.561 388.739 248.727Z" fill="#FFE7E2"/>
</g>
<g style="mix-blend-mode:multiply" opacity="0.5">
<path d="M203.535 332.051C227.94 326.791 243.092 301.034 237.378 274.52C231.664 248.006 207.248 230.776 182.843 236.036C158.438 241.295 143.285 267.052 148.999 293.566C154.713 320.08 179.129 337.31 203.535 332.051Z" fill="#FFE7E2"/>
</g>
<path opacity="0.3" d="M323.014 257.889C323.014 257.889 343.856 238.025 359.991 256.701L323.014 257.889Z" fill="#CBA284"/>
<path d="M128.679 356.869C59.299 391.699 -3.67045 304.357 16.499 255.26C29.3649 223.943 66.8787 221.508 88.6167 250.114C101.446 266.997 111.826 288.577 117.72 309.222" fill="#FFE4C0"/>
<path opacity="0.3" d="M71.5344 278.927C80.4611 288.026 87.6369 301.52 96.4571 309.047C94.8266 296.452 92.2247 283.002 86.1172 271.651C79.9158 260.123 68.6382 250.626 57.1553 251.409C42.9245 252.38 31.2076 268.982 29.7012 284.035C30.6017 275.027 48.6906 268.931 55.5951 269.784C66.4068 290.197 70.5932 330.428 70.5932 330.428C79.5997 307.653 75.9531 289.739 71.5344 278.927Z" fill="#CBA284"/>
</svg>
