<svg width="448" height="468" viewBox="0 0 448 468" fill="none" xmlns="http://www.w3.org/2000/svg">
<path d="M264.543 38.6846C264.543 38.6846 395.93 59.277 385.967 246.812C385.931 247.507 401.158 257.634 402.351 258.716C412.969 268.335 421.878 280.655 425.774 295.067C439.646 346.385 390.05 399.263 349.943 413.298C334.963 418.539 319.128 421.085 303.263 421.547C200.123 424.555 63.5727 358.892 56.5595 230.654C56.3083 226.053 56.2463 221.447 56.3645 216.852C56.9862 192.502 62.853 168.788 71.6951 146.77C71.6912 146.771 129.093 4.15276 264.543 38.6846Z" fill="#643D19"/>
<g style="mix-blend-mode:multiply" opacity="0.5">
<path d="M389.293 248.79C387.87 252.283 386.449 256.746 386.052 259.298C384.358 270.245 388.097 281.549 394.592 289.676C400.759 297.392 409.568 302.396 418.098 304.283C420.978 304.92 424.465 305.247 427.514 305.349C424.309 273.647 398.541 254.625 389.293 248.79Z" fill="#FF5C3C"/>
</g>
<g style="mix-blend-mode:multiply" opacity="0.5">
<path d="M204.088 332.114C228.493 326.855 243.646 301.098 237.932 274.584C232.218 248.07 207.802 230.84 183.396 236.099C158.991 241.359 143.839 267.116 149.553 293.63C155.267 320.144 179.683 337.374 204.088 332.114Z" fill="#FF5C3C"/>
</g>
<path opacity="0.3" d="M323.567 257.953C323.567 257.953 344.409 238.089 360.545 256.765L323.567 257.953Z" fill="#1D0C00"/>
<path d="M129.232 356.933C59.8527 391.763 -3.11674 304.42 17.0527 255.324C29.9186 224.006 67.4324 221.572 89.1704 250.178C101.999 267.061 112.38 288.641 118.274 309.286" fill="#643D19"/>
<path opacity="0.3" d="M72.0881 278.991C81.0149 288.089 88.1907 301.584 97.0109 309.111C95.3804 296.516 92.7785 283.065 86.671 271.715C80.4695 260.187 69.1919 250.69 57.709 251.473C43.4782 252.444 31.7613 269.046 30.2549 284.098C31.1554 275.09 49.2443 268.994 56.1488 269.848C66.9606 290.26 71.147 330.492 71.147 330.492C80.1535 307.716 76.5069 289.803 72.0881 278.991Z" fill="#1D0C00"/>
</svg>
