<svg width="448" height="468" viewBox="0 0 448 468" fill="none" xmlns="http://www.w3.org/2000/svg">
<path d="M264.507 38.6209C264.507 38.6209 395.894 59.2134 385.931 246.748C385.895 247.443 401.123 257.57 402.315 258.652C412.934 268.272 421.842 280.592 425.738 295.003C439.61 346.322 390.014 399.199 349.908 413.234C334.927 418.476 319.092 421.021 303.227 421.483C200.088 424.492 63.537 358.828 56.5237 230.59C56.2726 225.989 56.2106 221.383 56.3287 216.788C56.9505 192.439 62.8173 168.725 71.6593 146.706C71.6554 146.707 129.057 4.0891 264.507 38.6209Z" fill="#F5D7B1"/>
<g style="mix-blend-mode:multiply" opacity="0.5">
<path d="M389.257 248.727C387.834 252.219 386.413 256.682 386.016 259.234C384.322 270.182 388.061 281.486 394.556 289.612C400.724 297.328 409.532 302.332 418.062 304.219C420.942 304.857 424.429 305.183 427.478 305.286C424.274 273.583 398.505 254.561 389.257 248.727Z" fill="#FFD5CD"/>
</g>
<g style="mix-blend-mode:multiply" opacity="0.5">
<path d="M204.052 332.051C228.458 326.791 243.61 301.034 237.896 274.52C232.182 248.006 207.766 230.776 183.361 236.036C158.956 241.295 143.803 267.052 149.517 293.566C155.231 320.08 179.647 337.31 204.052 332.051Z" fill="#FFD5CD"/>
</g>
<path opacity="0.3" d="M323.532 257.889C323.532 257.889 344.374 238.025 360.509 256.701L323.532 257.889Z" fill="#D09B73"/>
<path d="M129.197 356.869C59.817 391.699 -3.1525 304.357 17.0169 255.26C29.8828 223.943 67.3967 221.508 89.1346 250.114C101.963 266.997 112.344 288.577 118.238 309.222" fill="#F5D7B1"/>
<path opacity="0.3" d="M72.0523 278.927C80.9791 288.026 88.1548 301.52 96.975 309.047C95.3445 296.452 92.7426 283.002 86.6351 271.651C80.4337 260.123 69.1561 250.626 57.6732 251.409C43.4424 252.38 31.7255 268.982 30.2192 284.035C31.1197 275.027 49.2085 268.931 56.113 269.784C66.9248 290.197 71.1112 330.428 71.1112 330.428C80.1177 307.653 76.471 289.739 72.0523 278.927Z" fill="#D09B73"/>
</svg>
