<svg width="447" height="468" viewBox="0 0 447 468" fill="none" xmlns="http://www.w3.org/2000/svg">
<path d="M264.025 38.6846C264.025 38.6846 395.412 59.277 385.449 246.812C385.413 247.507 400.641 257.634 401.833 258.716C412.452 268.335 421.36 280.655 425.256 295.067C439.128 346.385 389.532 399.263 349.426 413.298C334.445 418.539 318.61 421.085 302.745 421.547C199.606 424.555 63.0549 358.892 56.0417 230.654C55.7905 226.053 55.7285 221.447 55.8467 216.852C56.4684 192.502 62.3352 168.788 71.1773 146.77C71.1733 146.771 128.575 4.15276 264.025 38.6846Z" fill="#8C5A2B"/>
<g style="mix-blend-mode:multiply" opacity="0.5">
<path d="M388.775 248.79C387.352 252.283 385.931 256.746 385.534 259.298C383.84 270.245 387.579 281.549 394.074 289.676C400.242 297.392 409.05 302.396 417.58 304.283C420.46 304.92 423.947 305.247 426.996 305.349C423.792 273.647 398.023 254.625 388.775 248.79Z" fill="#F4A494"/>
</g>
<g style="mix-blend-mode:multiply" opacity="0.5">
<path d="M203.57 332.114C227.976 326.855 243.128 301.098 237.414 274.584C231.7 248.07 207.284 230.84 182.879 236.099C158.474 241.359 143.321 267.116 149.035 293.63C154.749 320.144 179.165 337.374 203.57 332.114Z" fill="#F4A494"/>
</g>
<path opacity="0.3" d="M323.05 257.953C323.05 257.953 343.892 238.089 360.027 256.765L323.05 257.953Z" fill="#452811"/>
<path d="M128.715 356.933C59.3349 391.763 -3.63457 304.42 16.5348 255.324C29.4008 224.006 66.9146 221.572 88.6526 250.178C101.481 267.061 111.862 288.641 117.756 309.286" fill="#8C5A2B"/>
<path opacity="0.3" d="M71.5703 278.991C80.4971 288.089 87.6728 301.583 96.493 309.111C94.8625 296.515 92.2606 283.065 86.1531 271.715C79.9517 260.187 68.6741 250.69 57.1912 251.473C42.9604 252.444 31.2435 269.046 29.7371 284.098C30.6376 275.09 48.7265 268.994 55.631 269.848C66.4427 290.26 70.6292 330.492 70.6292 330.492C79.6357 307.716 75.989 289.803 71.5703 278.991Z" fill="#452811"/>
</svg>
