<svg width="447" height="468" viewBox="0 0 447 468" fill="none" xmlns="http://www.w3.org/2000/svg">
<path d="M263.989 38.6846C263.989 38.6846 395.376 59.277 385.413 246.812C385.377 247.507 400.605 257.634 401.797 258.716C412.416 268.335 421.324 280.655 425.22 295.067C439.092 346.385 389.496 399.263 349.39 413.298C334.409 418.539 318.575 421.085 302.709 421.547C199.57 424.555 63.019 358.892 56.0058 230.654C55.7546 226.053 55.6926 221.447 55.8108 216.852C56.4325 192.502 62.2993 168.788 71.1414 146.77C71.1374 146.771 128.539 4.15276 263.989 38.6846Z" fill="#C99C62"/>
<g style="mix-blend-mode:multiply" opacity="0.5">
<path d="M388.739 248.79C387.316 252.283 385.895 256.746 385.498 259.298C383.804 270.245 387.543 281.549 394.038 289.676C400.206 297.392 409.014 302.396 417.544 304.283C420.424 304.92 423.911 305.247 426.96 305.349C423.756 273.647 397.987 254.625 388.739 248.79Z" fill="#EEB2A7"/>
</g>
<g style="mix-blend-mode:multiply" opacity="0.5">
<path d="M203.535 332.114C227.94 326.855 243.092 301.098 237.378 274.584C231.664 248.07 207.248 230.84 182.843 236.099C158.438 241.359 143.285 267.116 148.999 293.63C154.713 320.144 179.129 337.374 203.535 332.114Z" fill="#EEB2A7"/>
</g>
<path opacity="0.3" d="M323.014 257.953C323.014 257.953 343.856 238.089 359.991 256.765L323.014 257.953Z" fill="#8B5E3C"/>
<path d="M128.679 356.933C59.299 391.763 -3.67046 304.42 16.499 255.324C29.3649 224.006 66.8787 221.572 88.6167 250.178C101.446 267.061 111.826 288.641 117.72 309.286" fill="#C99C62"/>
<path opacity="0.3" d="M71.5344 278.991C80.4611 288.089 87.6369 301.583 96.4571 309.111C94.8266 296.515 92.2247 283.065 86.1172 271.715C79.9158 260.187 68.6382 250.69 57.1553 251.473C42.9245 252.444 31.2076 269.046 29.7012 284.098C30.6017 275.09 48.6906 268.994 55.5951 269.848C66.4068 290.26 70.5932 330.492 70.5932 330.492C79.5997 307.716 75.9531 289.803 71.5344 278.991Z" fill="#8B5E3C"/>
</svg>
