<svg width="446" height="468" viewBox="0 0 446 468" fill="none" xmlns="http://www.w3.org/2000/svg">
<path d="M262.989 38.6209C262.989 38.6209 394.376 59.2134 384.413 246.748C384.377 247.443 399.605 257.57 400.797 258.652C411.416 268.272 420.324 280.592 424.22 295.003C438.092 346.322 388.496 399.199 348.39 413.234C333.409 418.476 317.575 421.021 301.709 421.483C198.57 424.492 62.019 358.828 55.0058 230.59C54.7546 225.989 54.6926 221.383 54.8108 216.788C55.4325 192.439 61.2993 168.725 70.1414 146.706C70.1374 146.707 127.539 4.0891 262.989 38.6209Z" fill="#E2BA87"/>
<g style="mix-blend-mode:multiply" opacity="0.5">
<path d="M387.739 248.727C386.316 252.219 384.895 256.682 384.498 259.234C382.804 270.182 386.543 281.486 393.038 289.612C399.206 297.328 408.014 302.332 416.544 304.219C419.424 304.857 422.911 305.183 425.96 305.286C422.756 273.583 396.987 254.561 387.739 248.727Z" fill="#FCC3B8"/>
</g>
<g style="mix-blend-mode:multiply" opacity="0.5">
<path d="M202.534 332.051C226.94 326.791 242.092 301.034 236.378 274.52C230.664 248.006 206.248 230.776 181.843 236.036C157.438 241.295 142.285 267.052 147.999 293.566C153.713 320.08 178.129 337.31 202.534 332.051Z" fill="#FCC3B8"/>
</g>
<path opacity="0.3" d="M322.014 257.889C322.014 257.889 342.856 238.025 358.991 256.701L322.014 257.889Z" fill="#8B5E3C"/>
<path d="M127.711 355.741C56.6454 391.306 -5.85706 305.249 15.4569 256.141C29.0529 224.817 67.2031 221.899 88.8059 250.07C101.555 266.696 111.738 288.027 117.379 308.486" fill="#E2BA87"/>
<path opacity="0.3" d="M70.8718 278.879C79.7744 287.805 86.8271 301.124 95.648 308.49C94.2052 295.991 91.7914 282.656 85.7864 271.454C79.689 260.077 68.4084 250.786 56.7472 251.715C42.2954 252.868 30.1316 269.526 28.3511 284.507C29.4156 275.542 47.8669 269.244 54.8564 270.001C65.4815 290.148 69.0536 330.084 69.0536 330.084C78.5715 307.326 75.1728 289.567 70.8718 278.879Z" fill="#8B5E3C"/>
</svg>
