<svg id="visual" viewBox="0 0 900 600" width="900" height="600" xmlns="http://www.w3.org/2000/svg" xmlns:xlink="http://www.w3.org/1999/xlink" version="1.1"><path d="M764 600L656 600L656 545L530 545L530 491L485 491L485 436L773 436L773 382L656 382L656 327L593 327L593 273L638 273L638 218L755 218L755 164L737 164L737 109L719 109L719 55L647 55L647 0L900 0L900 55L900 55L900 109L900 109L900 164L900 164L900 218L900 218L900 273L900 273L900 327L900 327L900 382L900 382L900 436L900 436L900 491L900 491L900 545L900 545L900 600L900 600Z" fill="#ffd92d"></path><path d="M458 600L359 600L359 545L368 545L368 491L332 491L332 436L368 436L368 382L386 382L386 327L305 327L305 273L341 273L341 218L341 218L341 164L377 164L377 109L440 109L440 55L431 55L431 0L648 0L648 55L720 55L720 109L738 109L738 164L756 164L756 218L639 218L639 273L594 273L594 327L657 327L657 382L774 382L774 436L486 436L486 491L531 491L531 545L657 545L657 600L765 600Z" fill="#dba621"></path><path d="M305 600L188 600L188 545L197 545L197 491L224 491L224 436L278 436L278 382L278 382L278 327L143 327L143 273L152 273L152 218L233 218L233 164L233 164L233 109L197 109L197 55L206 55L206 0L432 0L432 55L441 55L441 109L378 109L378 164L342 164L342 218L342 218L342 273L306 273L306 327L387 327L387 382L369 382L369 436L333 436L333 491L369 491L369 545L360 545L360 600L459 600Z" fill="#b17718"></path><path d="M143 600L107 600L107 545L80 545L80 491L53 491L53 436L89 436L89 382L107 382L107 327L71 327L71 273L71 273L71 218L134 218L134 164L80 164L80 109L116 109L116 55L62 55L62 0L207 0L207 55L198 55L198 109L234 109L234 164L234 164L234 218L153 218L153 273L144 273L144 327L279 327L279 382L279 382L279 436L225 436L225 491L198 491L198 545L189 545L189 600L306 600Z" fill="#844d10"></path><path d="M0 600L0 600L0 545L0 545L0 491L0 491L0 436L0 436L0 382L0 382L0 327L0 327L0 273L0 273L0 218L0 218L0 164L0 164L0 109L0 109L0 55L0 55L0 0L63 0L63 55L117 55L117 109L81 109L81 164L135 164L135 218L72 218L72 273L72 273L72 327L108 327L108 382L90 382L90 436L54 436L54 491L81 491L81 545L108 545L108 600L144 600Z" fill="#552805"></path></svg>