<svg id="visual" viewBox="0 0 900 600" width="900" height="600" xmlns="http://www.w3.org/2000/svg" xmlns:xlink="http://www.w3.org/1999/xlink" version="1.1"><rect x="0" y="0" width="900" height="600" fill="#001220"></rect><path d="M0 435L21.5 423.5C43 412 86 389 128.8 383.3C171.7 377.7 214.3 389.3 257.2 399.5C300 409.7 343 418.3 385.8 424.8C428.7 431.3 471.3 435.7 514.2 427C557 418.3 600 396.7 642.8 392.2C685.7 387.7 728.3 400.3 771.2 404.5C814 408.7 857 404.3 878.5 402.2L900 400L900 601L878.5 601C857 601 814 601 771.2 601C728.3 601 685.7 601 642.8 601C600 601 557 601 514.2 601C471.3 601 428.7 601 385.8 601C343 601 300 601 257.2 601C214.3 601 171.7 601 128.8 601C86 601 43 601 21.5 601L0 601Z" fill="#552805"></path><path d="M0 469L21.5 464.2C43 459.3 86 449.7 128.8 443.3C171.7 437 214.3 434 257.2 432.2C300 430.3 343 429.7 385.8 425.3C428.7 421 471.3 413 514.2 409C557 405 600 405 642.8 409.5C685.7 414 728.3 423 771.2 430.2C814 437.3 857 442.7 878.5 445.3L900 448L900 601L878.5 601C857 601 814 601 771.2 601C728.3 601 685.7 601 642.8 601C600 601 557 601 514.2 601C471.3 601 428.7 601 385.8 601C343 601 300 601 257.2 601C214.3 601 171.7 601 128.8 601C86 601 43 601 21.5 601L0 601Z" fill="#482206"></path><path d="M0 496L21.5 493.5C43 491 86 486 128.8 485.5C171.7 485 214.3 489 257.2 485.7C300 482.3 343 471.7 385.8 474.7C428.7 477.7 471.3 494.3 514.2 501.5C557 508.7 600 506.3 642.8 498.8C685.7 491.3 728.3 478.7 771.2 478.3C814 478 857 490 878.5 496L900 502L900 601L878.5 601C857 601 814 601 771.2 601C728.3 601 685.7 601 642.8 601C600 601 557 601 514.2 601C471.3 601 428.7 601 385.8 601C343 601 300 601 257.2 601C214.3 601 171.7 601 128.8 601C86 601 43 601 21.5 601L0 601Z" fill="#3c1c06"></path><path d="M0 490L21.5 491.5C43 493 86 496 128.8 500C171.7 504 214.3 509 257.2 513C300 517 343 520 385.8 524.5C428.7 529 471.3 535 514.2 537C557 539 600 537 642.8 530.7C685.7 524.3 728.3 513.7 771.2 507.3C814 501 857 499 878.5 498L900 497L900 601L878.5 601C857 601 814 601 771.2 601C728.3 601 685.7 601 642.8 601C600 601 557 601 514.2 601C471.3 601 428.7 601 385.8 601C343 601 300 601 257.2 601C214.3 601 171.7 601 128.8 601C86 601 43 601 21.5 601L0 601Z" fill="#301604"></path><path d="M0 561L21.5 560.8C43 560.7 86 560.3 128.8 555.2C171.7 550 214.3 540 257.2 535.7C300 531.3 343 532.7 385.8 531.8C428.7 531 471.3 528 514.2 532.2C557 536.3 600 547.7 642.8 555.8C685.7 564 728.3 569 771.2 568.3C814 567.7 857 561.3 878.5 558.2L900 555L900 601L878.5 601C857 601 814 601 771.2 601C728.3 601 685.7 601 642.8 601C600 601 557 601 514.2 601C471.3 601 428.7 601 385.8 601C343 601 300 601 257.2 601C214.3 601 171.7 601 128.8 601C86 601 43 601 21.5 601L0 601Z" fill="#241102"></path></svg>