<svg id="visual" viewBox="0 0 900 600" width="900" height="600" xmlns="http://www.w3.org/2000/svg" xmlns:xlink="http://www.w3.org/1999/xlink" version="1.1"><rect x="0" y="0" width="900" height="600" fill="#552805"></rect><defs><linearGradient id="grad1_0" x1="33.3%" y1="0%" x2="100%" y2="100%"><stop offset="20%" stop-color="#552805" stop-opacity="1"></stop><stop offset="80%" stop-color="#552805" stop-opacity="1"></stop></linearGradient></defs><defs><linearGradient id="grad2_0" x1="0%" y1="0%" x2="66.7%" y2="100%"><stop offset="20%" stop-color="#552805" stop-opacity="1"></stop><stop offset="80%" stop-color="#552805" stop-opacity="1"></stop></linearGradient></defs><g transform="translate(900, 0)"><path d="M0 486.7C-43.4 433.8 -86.9 380.8 -151.5 365.9C-216.2 350.9 -302.1 373.8 -344.2 344.2C-386.3 314.5 -384.5 232.2 -401 166.1C-417.4 99.9 -452.1 50 -486.7 0L0 0Z" fill="#FFD92D"></path></g><g transform="translate(0, 600)"><path d="M0 -486.7C47 -442.6 93.9 -398.5 158.4 -382.5C222.9 -366.4 305 -378.5 344.2 -344.2C383.4 -309.9 379.7 -229.3 396.3 -164.2C413 -99.1 449.9 -49.5 486.7 0L0 0Z" fill="#FFD92D"></path></g></svg>